<svg width="20" height="22" viewBox="0 0 20 22" fill="none" xmlns="http://www.w3.org/2000/svg">
<path d="M9.29289 15.7071C9.68342 16.0976 10.3166 16.0976 10.7071 15.7071L17.0711 9.34315C17.4616 8.95262 17.4616 8.31946 17.0711 7.92893C16.6805 7.53841 16.0474 7.53841 15.6569 7.92893L10 13.5858L4.34315 7.92893C3.95262 7.53841 3.31946 7.53841 2.92893 7.92893C2.53841 8.31946 2.53841 8.95262 2.92893 9.34315L9.29289 15.7071ZM9 4.37113e-08L9 15L11 15L11 -4.37113e-08L9 4.37113e-08Z" fill="white"/>
<path d="M1 21L19 21" stroke="white" stroke-width="2" stroke-linecap="round"/>
<path d="M1 14L1 17.5L1 21" stroke="white" stroke-width="2" stroke-linecap="round"/>
<path d="M19 14L19 17.5L19 21" stroke="white" stroke-width="2" stroke-linecap="round"/>
</svg>
