<svg width="103" height="100" viewBox="0 0 103 100" fill="none" xmlns="http://www.w3.org/2000/svg">
<mask id="path-1-inside-1_24_330" fill="white">
<path d="M5.28223 15.8948C5.28223 11.4765 8.86395 7.89478 13.2822 7.89478H89.7181C94.1364 7.89478 97.7181 11.4765 97.7181 15.8948V92C97.7181 96.4183 94.1364 100 89.7181 100H13.2822C8.86396 100 5.28223 96.4183 5.28223 92V15.8948Z"/>
</mask>
<path d="M5.28223 15.8948C5.28223 11.4765 8.86395 7.89478 13.2822 7.89478H89.7181C94.1364 7.89478 97.7181 11.4765 97.7181 15.8948V92C97.7181 96.4183 94.1364 100 89.7181 100H13.2822C8.86396 100 5.28223 96.4183 5.28223 92V15.8948Z" fill="white"/>
<path d="M5.28223 7.89478H97.7181H5.28223ZM102.718 92C102.718 99.1797 96.8978 105 89.7181 105H13.2822C6.10252 105 0.282227 99.1797 0.282227 92H10.2822C10.2822 93.6569 11.6254 95 13.2822 95H89.7181C91.375 95 92.7181 93.6569 92.7181 92H102.718ZM13.2822 105C6.10252 105 0.282227 99.1797 0.282227 92V20.8948C0.282227 13.7151 6.10252 7.89478 13.2822 7.89478C11.6254 7.89478 10.2822 11.4765 10.2822 15.8948V92C10.2822 93.6569 11.6254 95 13.2822 95V105ZM89.7181 7.89478C96.8978 7.89478 102.718 13.7151 102.718 20.8948V92C102.718 99.1797 96.8978 105 89.7181 105V95C91.375 95 92.7181 93.6569 92.7181 92V15.8948C92.7181 11.4765 91.375 7.89478 89.7181 7.89478Z" fill="#3498DB" mask="url(#path-1-inside-1_24_330)"/>
<rect width="103" height="50" fill="white"/>
<path d="M49.7461 69.4817C49.7461 70.8624 50.8654 71.9817 52.2461 71.9817C53.6268 71.9817 54.7461 70.8624 54.7461 69.4817H49.7461ZM54.0139 7.18761C53.0375 6.2113 51.4546 6.2113 50.4783 7.18761L34.5684 23.0975C33.5921 24.0738 33.5921 25.6567 34.5684 26.633C35.5447 27.6094 37.1276 27.6094 38.104 26.633L52.2461 12.4909L66.3882 26.633C67.3645 27.6094 68.9475 27.6094 69.9238 26.633C70.9001 25.6567 70.9001 24.0738 69.9238 23.0975L54.0139 7.18761ZM54.7461 69.4817V8.95538H49.7461V69.4817H54.7461Z" fill="#3498DB"/>
</svg>
